<svg xmlns="http://www.w3.org/2000/svg" viewBox="0 0 64 64" width="64" height="64" role="img" aria-label="fupit">
  <defs>
    <linearGradient id="sky" x1="10" y1="8" x2="56" y2="58" gradientUnits="userSpaceOnUse">
      <stop offset="0" stop-color="#082033" />
      <stop offset="0.48" stop-color="#0b3d4b" />
      <stop offset="1" stop-color="#132032" />
    </linearGradient>
    <linearGradient id="climate" x1="5" y1="48" x2="61" y2="24" gradientUnits="userSpaceOnUse">
      <stop offset="0" stop-color="#12b8d6" />
      <stop offset="0.42" stop-color="#24c276" />
      <stop offset="0.7" stop-color="#f0a930" />
      <stop offset="1" stop-color="#ef4f3f" />
    </linearGradient>
    <clipPath id="round">
      <rect width="64" height="64" rx="14" />
    </clipPath>
  </defs>
  <g clip-path="url(#round)">
    <rect width="64" height="64" fill="url(#sky)" />
    <path d="M-5 48c13-4 19-2 31-7 11-5 19-16 43-14v38H-5Z" fill="url(#climate)" opacity="0.92" />
    <path d="M-4 43c12-3 21-1 31-6 10-5 20-14 40-13" fill="none" stroke="#d8fff7" stroke-opacity="0.55" stroke-width="1.6" />
    <path d="M-2 53c11-4 24-2 35-7 8-4 18-10 36-9" fill="none" stroke="#421018" stroke-opacity="0.35" stroke-width="1.3" />
    <path d="M8 16h48M8 28h48M16 8v48M32 8v48M48 8v48" stroke="#9bdff2" stroke-opacity="0.12" stroke-width="1" />
    <circle cx="47" cy="25" r="2.3" fill="#fff7bd" />
    <circle cx="23" cy="39" r="1.8" fill="#9ff6f1" />
    <text x="20" y="48" font-family="Inter, Arial, sans-serif" font-size="43" font-weight="900" fill="#ffffff" letter-spacing="0">f</text>
  </g>
</svg>
