<svg xmlns="http://www.w3.org/2000/svg" viewBox="0 0 64 64" width="64" height="64" role="img" aria-label="ClimateVision">
  <defs>
    <linearGradient id="cv" x1="0" y1="0" x2="1" y2="1">
      <stop offset="0" stop-color="#1198c4" />
      <stop offset="1" stop-color="#2f7bf0" />
    </linearGradient>
  </defs>
  <rect width="64" height="64" rx="14" fill="url(#cv)" />
  <path d="M32 12a20 20 0 1 0 0 40 20 20 0 0 0 0-40Zm0 4c2.4 0 4.6 3 5.9 7.8H26.1C27.4 19 29.6 16 32 16Zm-9.6 4.7A21 21 0 0 0 21.3 24h-4.1a16.1 16.1 0 0 1 5.2-3.3ZM16.4 28h4.3c-.2 1.3-.3 2.6-.3 4s.1 2.7.3 4h-4.3a16 16 0 0 1 0-8Zm.8 12h4.1a21 21 0 0 0 1.1 3.3A16.1 16.1 0 0 1 17.2 40Zm9 0h11.6C36.6 44.8 34.4 48 32 48s-4.6-3.2-5.8-8Zm12.4-4H25.4c-.2-1.3-.3-2.6-.3-4s.1-2.7.3-4h13.2c.2 1.3.3 2.6.3 4s-.1 2.7-.3 4Zm-.3 7.3A21 21 0 0 0 39.6 40h4.1a16.1 16.1 0 0 1-5.2 3.3ZM43.3 36c.2-1.3.3-2.6.3-4s-.1-2.7-.3-4h4.3a16 16 0 0 1 0 8Zm-.6-12a21 21 0 0 0-1.1-3.3A16.1 16.1 0 0 1 46.8 24Z" fill="#ffffff" opacity="0.95" />
</svg>
